<?xml version="1.0" encoding="UTF-8" standalone="no"?>
<!DOCTYPE svg PUBLIC "-//W3C//DTD SVG 1.1//EN"
 "http://www.w3.org/Graphics/SVG/1.1/DTD/svg11.dtd">
<!-- Generated by graphviz version 2.40.1 (20161225.0304)
 -->
<!-- Title: dependencies Pages: 1 -->
<svg width="1247pt" height="284pt"
 viewBox="0.00 0.00 1247.00 284.00" xmlns="http://www.w3.org/2000/svg" xmlns:xlink="http://www.w3.org/1999/xlink">
<g id="graph0" class="graph" transform="scale(1 1) rotate(0) translate(4 280)">
<title>dependencies</title>
<polygon fill="#ffffff" stroke="transparent" points="-4,4 -4,-280 1243,-280 1243,4 -4,4"/>
<text text-anchor="start" x="598.5091" y="-42.4" font-family="sans-serif" font-weight="bold" font-size="14.00" fill="#000000">Legend</text>
<polygon fill="#ffffb3" stroke="transparent" points="385.5,-10 385.5,-30 405.5,-30 405.5,-10 385.5,-10"/>
<text text-anchor="start" x="409.129" y="-15.4" font-family="sans-serif" font-size="14.00" fill="#000000"> &#160;Declarations</text>
<polygon fill="#8dd3c7" stroke="transparent" points="498.5,-10 498.5,-30 518.5,-30 518.5,-10 498.5,-10"/>
<text text-anchor="start" x="522.2251" y="-15.4" font-family="sans-serif" font-size="14.00" fill="#000000"> &#160;Module</text>
<polygon fill="#80b1d3" stroke="transparent" points="584.5,-10 584.5,-30 604.5,-30 604.5,-10 584.5,-10"/>
<text text-anchor="start" x="608.2812" y="-15.4" font-family="sans-serif" font-size="14.00" fill="#000000"> &#160;Bootstrap</text>
<polygon fill="#fdb462" stroke="transparent" points="681.5,-10 681.5,-30 701.5,-30 701.5,-10 681.5,-10"/>
<text text-anchor="start" x="705.1732" y="-15.4" font-family="sans-serif" font-size="14.00" fill="#000000"> &#160;Providers</text>
<polygon fill="#fb8072" stroke="transparent" points="777.5,-10 777.5,-30 797.5,-30 797.5,-10 777.5,-10"/>
<text text-anchor="start" x="801.2258" y="-15.4" font-family="sans-serif" font-size="14.00" fill="#000000"> &#160;Exports</text>
<g id="clust1" class="cluster">
<title>cluster_SpotifyModule</title>
<polygon fill="none" stroke="#000000" stroke-dasharray="1,5" points="8,-70 8,-268 1231,-268 1231,-70 8,-70"/>
</g>
<g id="clust2" class="cluster">
<title>cluster_SpotifyModule_declarations</title>
<polygon fill="none" stroke="#000000" points="490,-78 490,-130 1223,-130 1223,-78 490,-78"/>
</g>
<g id="clust7" class="cluster">
<title>cluster_SpotifyModule_imports</title>
<polygon fill="none" stroke="#000000" points="204,-78 204,-130 482,-130 482,-78 204,-78"/>
</g>
<g id="clust8" class="cluster">
<title>cluster_SpotifyModule_exports</title>
<polygon fill="none" stroke="#000000" points="202,-208 202,-260 950,-260 950,-208 202,-208"/>
</g>
<g id="clust10" class="cluster">
<title>cluster_SpotifyModule_providers</title>
<polygon fill="none" stroke="#000000" points="16,-78 16,-130 196,-130 196,-78 16,-78"/>
</g>
<!-- SpotifyHomeComponent -->
<g id="node1" class="node">
<title>SpotifyHomeComponent</title>
<polygon fill="#ffffb3" stroke="#000000" points="1215.2688,-122 1058.7312,-122 1058.7312,-86 1215.2688,-86 1215.2688,-122"/>
<text text-anchor="middle" x="1137" y="-99.8" font-family="Times,serif" font-size="14.00" fill="#000000">SpotifyHomeComponent</text>
</g>
<!-- SpotifyModule -->
<g id="node5" class="node">
<title>SpotifyModule</title>
<polygon fill="#8dd3c7" stroke="#000000" points="642.2745,-187 639.2745,-191 618.2745,-191 615.2745,-187 541.7255,-187 541.7255,-151 642.2745,-151 642.2745,-187"/>
<text text-anchor="middle" x="592" y="-164.8" font-family="Times,serif" font-size="14.00" fill="#000000">SpotifyModule</text>
</g>
<!-- SpotifyHomeComponent&#45;&gt;SpotifyModule -->
<g id="edge1" class="edge">
<title>SpotifyHomeComponent&#45;&gt;SpotifyModule</title>
<path fill="none" stroke="#000000" d="M1137,-122.1289C1137,-142.5724 1137,-173 1137,-173 1137,-173 652.2954,-173 652.2954,-173"/>
<polygon fill="#000000" stroke="#000000" points="652.2954,-169.5001 642.2954,-173 652.2954,-176.5001 652.2954,-169.5001"/>
</g>
<!-- SpotifyPlayerComponent -->
<g id="node2" class="node">
<title>SpotifyPlayerComponent</title>
<polygon fill="#ffffb3" stroke="#000000" points="1040.3201,-122 881.6799,-122 881.6799,-86 1040.3201,-86 1040.3201,-122"/>
<text text-anchor="middle" x="961" y="-99.8" font-family="Times,serif" font-size="14.00" fill="#000000">SpotifyPlayerComponent</text>
</g>
<!-- SpotifyPlayerComponent&#45;&gt;SpotifyModule -->
<g id="edge2" class="edge">
<title>SpotifyPlayerComponent&#45;&gt;SpotifyModule</title>
<path fill="none" stroke="#000000" d="M911.9872,-122.2667C911.9872,-140.5552 911.9872,-166 911.9872,-166 911.9872,-166 652.35,-166 652.35,-166"/>
<polygon fill="#000000" stroke="#000000" points="652.35,-162.5001 642.35,-166 652.35,-169.5001 652.35,-162.5001"/>
</g>
<!-- SpotifySearchComponent -->
<g id="node3" class="node">
<title>SpotifySearchComponent</title>
<polygon fill="#ffffb3" stroke="#000000" points="864.1442,-122 703.8558,-122 703.8558,-86 864.1442,-86 864.1442,-122"/>
<text text-anchor="middle" x="784" y="-99.8" font-family="Times,serif" font-size="14.00" fill="#000000">SpotifySearchComponent</text>
</g>
<!-- SpotifySearchComponent&#45;&gt;SpotifyModule -->
<g id="edge3" class="edge">
<title>SpotifySearchComponent&#45;&gt;SpotifyModule</title>
<path fill="none" stroke="#000000" d="M733.794,-122.0091C733.794,-138.0494 733.794,-159 733.794,-159 733.794,-159 652.3905,-159 652.3905,-159"/>
<polygon fill="#000000" stroke="#000000" points="652.3905,-155.5001 642.3905,-159 652.3905,-162.5001 652.3905,-155.5001"/>
</g>
<!-- SpotifyStoreTokenComponent -->
<g id="node4" class="node">
<title>SpotifyStoreTokenComponent</title>
<polygon fill="#ffffb3" stroke="#000000" points="685.8724,-122 498.1276,-122 498.1276,-86 685.8724,-86 685.8724,-122"/>
<text text-anchor="middle" x="592" y="-99.8" font-family="Times,serif" font-size="14.00" fill="#000000">SpotifyStoreTokenComponent</text>
</g>
<!-- SpotifyStoreTokenComponent&#45;&gt;SpotifyModule -->
<g id="edge4" class="edge">
<title>SpotifyStoreTokenComponent&#45;&gt;SpotifyModule</title>
<path fill="none" stroke="#000000" d="M592,-122.1061C592,-122.1061 592,-140.991 592,-140.991"/>
<polygon fill="#000000" stroke="#000000" points="588.5001,-140.9909 592,-150.991 595.5001,-140.991 588.5001,-140.9909"/>
</g>
<!-- SpotifyHomeComponent  -->
<g id="node8" class="node">
<title>SpotifyHomeComponent </title>
<polygon fill="#fb8072" stroke="#000000" points="942.2688,-252 781.7312,-252 781.7312,-216 942.2688,-216 942.2688,-252"/>
<text text-anchor="middle" x="862" y="-229.8" font-family="Times,serif" font-size="14.00" fill="#000000">SpotifyHomeComponent </text>
</g>
<!-- SpotifyModule&#45;&gt;SpotifyHomeComponent  -->
<g id="edge7" class="edge">
<title>SpotifyModule&#45;&gt;SpotifyHomeComponent </title>
<path fill="none" stroke="#000000" stroke-dasharray="5,2" d="M642.429,-180C710.4258,-180 823.0938,-180 823.0938,-180 823.0938,-180 823.0938,-205.7181 823.0938,-205.7181"/>
<polygon fill="#000000" stroke="#000000" points="819.5939,-205.718 823.0938,-215.7181 826.5939,-205.7181 819.5939,-205.718"/>
</g>
<!-- SpotifyPlayerComponent  -->
<g id="node9" class="node">
<title>SpotifyPlayerComponent </title>
<polygon fill="#fb8072" stroke="#000000" points="763.8199,-252 602.1801,-252 602.1801,-216 763.8199,-216 763.8199,-252"/>
<text text-anchor="middle" x="683" y="-229.8" font-family="Times,serif" font-size="14.00" fill="#000000">SpotifyPlayerComponent </text>
</g>
<!-- SpotifyModule&#45;&gt;SpotifyPlayerComponent  -->
<g id="edge8" class="edge">
<title>SpotifyModule&#45;&gt;SpotifyPlayerComponent </title>
<path fill="none" stroke="#000000" stroke-dasharray="5,2" d="M622.2386,-187.1061C622.2386,-187.1061 622.2386,-205.991 622.2386,-205.991"/>
<polygon fill="#000000" stroke="#000000" points="618.7387,-205.9909 622.2386,-215.991 625.7387,-205.991 618.7387,-205.9909"/>
</g>
<!-- SpotifySearchComponent  -->
<g id="node10" class="node">
<title>SpotifySearchComponent </title>
<polygon fill="#fb8072" stroke="#000000" points="584.1439,-252 419.8561,-252 419.8561,-216 584.1439,-216 584.1439,-252"/>
<text text-anchor="middle" x="502" y="-229.8" font-family="Times,serif" font-size="14.00" fill="#000000">SpotifySearchComponent </text>
</g>
<!-- SpotifyModule&#45;&gt;SpotifySearchComponent  -->
<g id="edge9" class="edge">
<title>SpotifyModule&#45;&gt;SpotifySearchComponent </title>
<path fill="none" stroke="#000000" stroke-dasharray="5,2" d="M562.8424,-187.1061C562.8424,-187.1061 562.8424,-205.991 562.8424,-205.991"/>
<polygon fill="#000000" stroke="#000000" points="559.3425,-205.9909 562.8424,-215.991 566.3425,-205.991 559.3425,-205.9909"/>
</g>
<!-- SpotifyStoreTokenComponent  -->
<g id="node11" class="node">
<title>SpotifyStoreTokenComponent </title>
<polygon fill="#fb8072" stroke="#000000" points="401.8728,-252 210.1272,-252 210.1272,-216 401.8728,-216 401.8728,-252"/>
<text text-anchor="middle" x="306" y="-229.8" font-family="Times,serif" font-size="14.00" fill="#000000">SpotifyStoreTokenComponent </text>
</g>
<!-- SpotifyModule&#45;&gt;SpotifyStoreTokenComponent  -->
<g id="edge10" class="edge">
<title>SpotifyModule&#45;&gt;SpotifyStoreTokenComponent </title>
<path fill="none" stroke="#000000" stroke-dasharray="5,2" d="M541.4942,-180C481.2954,-180 388.7376,-180 388.7376,-180 388.7376,-180 388.7376,-205.7181 388.7376,-205.7181"/>
<polygon fill="#000000" stroke="#000000" points="385.2376,-205.718 388.7376,-215.7181 392.2376,-205.7181 385.2376,-205.718"/>
</g>
<!-- SharedModule -->
<g id="node6" class="node">
<title>SharedModule</title>
<polygon fill="#8dd3c7" stroke="#000000" points="474.4231,-122 471.4231,-126 450.4231,-126 447.4231,-122 375.5769,-122 375.5769,-86 474.4231,-86 474.4231,-122"/>
<text text-anchor="middle" x="425" y="-99.8" font-family="Times,serif" font-size="14.00" fill="#000000">SharedModule</text>
</g>
<!-- SharedModule&#45;&gt;SpotifyModule -->
<g id="edge5" class="edge">
<title>SharedModule&#45;&gt;SpotifyModule</title>
<path fill="none" stroke="#000000" d="M447.0696,-122.0091C447.0696,-138.0494 447.0696,-159 447.0696,-159 447.0696,-159 531.7171,-159 531.7171,-159"/>
<polygon fill="#000000" stroke="#000000" points="531.7172,-162.5001 541.7171,-159 531.7171,-155.5001 531.7172,-162.5001"/>
</g>
<!-- SpotifyRoutingModule -->
<g id="node7" class="node">
<title>SpotifyRoutingModule</title>
<polygon fill="#8dd3c7" stroke="#000000" points="357.892,-122 354.892,-126 333.892,-126 330.892,-122 212.108,-122 212.108,-86 357.892,-86 357.892,-122"/>
<text text-anchor="middle" x="285" y="-99.8" font-family="Times,serif" font-size="14.00" fill="#000000">SpotifyRoutingModule</text>
</g>
<!-- SpotifyRoutingModule&#45;&gt;SpotifyModule -->
<g id="edge6" class="edge">
<title>SpotifyRoutingModule&#45;&gt;SpotifyModule</title>
<path fill="none" stroke="#000000" d="M285,-122.2667C285,-140.5552 285,-166 285,-166 285,-166 531.649,-166 531.649,-166"/>
<polygon fill="#000000" stroke="#000000" points="531.649,-169.5001 541.649,-166 531.6489,-162.5001 531.649,-169.5001"/>
</g>
<!-- SpotifyInterceptor -->
<g id="node12" class="node">
<title>SpotifyInterceptor</title>
<ellipse fill="#fdb462" stroke="#000000" cx="106" cy="-104" rx="81.6596" ry="18"/>
<text text-anchor="middle" x="106" y="-99.8" font-family="Times,serif" font-size="14.00" fill="#000000">SpotifyInterceptor</text>
</g>
<!-- SpotifyInterceptor&#45;&gt;SpotifyModule -->
<g id="edge11" class="edge">
<title>SpotifyInterceptor&#45;&gt;SpotifyModule</title>
<path fill="none" stroke="#000000" d="M106,-122.1289C106,-142.5724 106,-173 106,-173 106,-173 531.3648,-173 531.3648,-173"/>
<polygon fill="#000000" stroke="#000000" points="531.3649,-176.5001 541.3648,-173 531.3648,-169.5001 531.3649,-176.5001"/>
</g>
</g>
</svg>
