<?xml version="1.0" encoding="UTF-8" standalone="no"?>
<!DOCTYPE svg PUBLIC "-//W3C//DTD SVG 1.1//EN"
 "http://www.w3.org/Graphics/SVG/1.1/DTD/svg11.dtd">
<!-- Generated by graphviz version 2.40.1 (20161225.0304)
 -->
<!-- Title: dependencies Pages: 1 -->
<svg width="1192pt" height="211pt"
 viewBox="0.00 0.00 1192.00 211.00" xmlns="http://www.w3.org/2000/svg" xmlns:xlink="http://www.w3.org/1999/xlink">
<g id="graph0" class="graph" transform="scale(1 1) rotate(0) translate(4 207)">
<title>dependencies</title>
<polygon fill="#ffffff" stroke="transparent" points="-4,4 -4,-207 1188,-207 1188,4 -4,4"/>
<text text-anchor="start" x="571.0091" y="-42.4" font-family="sans-serif" font-weight="bold" font-size="14.00" fill="#000000">Legend</text>
<polygon fill="#ffffb3" stroke="transparent" points="358,-10 358,-30 378,-30 378,-10 358,-10"/>
<text text-anchor="start" x="381.629" y="-15.4" font-family="sans-serif" font-size="14.00" fill="#000000"> &#160;Declarations</text>
<polygon fill="#8dd3c7" stroke="transparent" points="471,-10 471,-30 491,-30 491,-10 471,-10"/>
<text text-anchor="start" x="494.7251" y="-15.4" font-family="sans-serif" font-size="14.00" fill="#000000"> &#160;Module</text>
<polygon fill="#80b1d3" stroke="transparent" points="557,-10 557,-30 577,-30 577,-10 557,-10"/>
<text text-anchor="start" x="580.7812" y="-15.4" font-family="sans-serif" font-size="14.00" fill="#000000"> &#160;Bootstrap</text>
<polygon fill="#fdb462" stroke="transparent" points="654,-10 654,-30 674,-30 674,-10 654,-10"/>
<text text-anchor="start" x="677.6732" y="-15.4" font-family="sans-serif" font-size="14.00" fill="#000000"> &#160;Providers</text>
<polygon fill="#fb8072" stroke="transparent" points="750,-10 750,-30 770,-30 770,-10 750,-10"/>
<text text-anchor="start" x="773.7258" y="-15.4" font-family="sans-serif" font-size="14.00" fill="#000000"> &#160;Exports</text>
<g id="clust1" class="cluster">
<title>cluster_GmailModule</title>
<polygon fill="none" stroke="#000000" stroke-dasharray="1,5" points="8,-70 8,-195 1176,-195 1176,-70 8,-70"/>
</g>
<g id="clust2" class="cluster">
<title>cluster_GmailModule_declarations</title>
<polygon fill="none" stroke="#000000" points="296,-78 296,-130 1168,-130 1168,-78 296,-78"/>
</g>
<g id="clust8" class="cluster">
<title>cluster_GmailModule_imports</title>
<polygon fill="none" stroke="#000000" points="16,-78 16,-130 288,-130 288,-78 16,-78"/>
</g>
<!-- EmailContainerComponent -->
<g id="node1" class="node">
<title>EmailContainerComponent</title>
<polygon fill="#ffffb3" stroke="#000000" points="1159.979,-122 990.021,-122 990.021,-86 1159.979,-86 1159.979,-122"/>
<text text-anchor="middle" x="1075" y="-99.8" font-family="Times,serif" font-size="14.00" fill="#000000">EmailContainerComponent</text>
</g>
<!-- GmailModule -->
<g id="node6" class="node">
<title>GmailModule</title>
<polygon fill="#8dd3c7" stroke="#000000" points="604.0439,-187 601.0439,-191 580.0439,-191 577.0439,-187 509.9561,-187 509.9561,-151 604.0439,-151 604.0439,-187"/>
<text text-anchor="middle" x="557" y="-164.8" font-family="Times,serif" font-size="14.00" fill="#000000">GmailModule</text>
</g>
<!-- EmailContainerComponent&#45;&gt;GmailModule -->
<g id="edge1" class="edge">
<title>EmailContainerComponent&#45;&gt;GmailModule</title>
<path fill="none" stroke="#000000" d="M1075,-122.2921C1075,-144.2057 1075,-178 1075,-178 1075,-178 614.3423,-178 614.3423,-178"/>
<polygon fill="#000000" stroke="#000000" points="614.3423,-174.5001 604.3423,-178 614.3422,-181.5001 614.3423,-174.5001"/>
</g>
<!-- GmailComponent -->
<g id="node2" class="node">
<title>GmailComponent</title>
<polygon fill="#ffffb3" stroke="#000000" points="972.3259,-122 855.6741,-122 855.6741,-86 972.3259,-86 972.3259,-122"/>
<text text-anchor="middle" x="914" y="-99.8" font-family="Times,serif" font-size="14.00" fill="#000000">GmailComponent</text>
</g>
<!-- GmailComponent&#45;&gt;GmailModule -->
<g id="edge2" class="edge">
<title>GmailComponent&#45;&gt;GmailModule</title>
<path fill="none" stroke="#000000" d="M914,-122.1061C914,-141.3391 914,-169 914,-169 914,-169 614.4068,-169 614.4068,-169"/>
<polygon fill="#000000" stroke="#000000" points="614.4069,-165.5001 604.4068,-169 614.4068,-172.5001 614.4069,-165.5001"/>
</g>
<!-- GmailEmailListComponent -->
<g id="node3" class="node">
<title>GmailEmailListComponent</title>
<polygon fill="#ffffb3" stroke="#000000" points="837.5434,-122 666.4566,-122 666.4566,-86 837.5434,-86 837.5434,-122"/>
<text text-anchor="middle" x="752" y="-99.8" font-family="Times,serif" font-size="14.00" fill="#000000">GmailEmailListComponent</text>
</g>
<!-- GmailEmailListComponent&#45;&gt;GmailModule -->
<g id="edge3" class="edge">
<title>GmailEmailListComponent&#45;&gt;GmailModule</title>
<path fill="none" stroke="#000000" d="M752,-122.027C752,-138.3976 752,-160 752,-160 752,-160 614.2041,-160 614.2041,-160"/>
<polygon fill="#000000" stroke="#000000" points="614.2041,-156.5001 604.2041,-160 614.204,-163.5001 614.2041,-156.5001"/>
</g>
<!-- GmailStoreTokenComponent -->
<g id="node4" class="node">
<title>GmailStoreTokenComponent</title>
<polygon fill="#ffffb3" stroke="#000000" points="647.6414,-122 466.3586,-122 466.3586,-86 647.6414,-86 647.6414,-122"/>
<text text-anchor="middle" x="557" y="-99.8" font-family="Times,serif" font-size="14.00" fill="#000000">GmailStoreTokenComponent</text>
</g>
<!-- GmailStoreTokenComponent&#45;&gt;GmailModule -->
<g id="edge4" class="edge">
<title>GmailStoreTokenComponent&#45;&gt;GmailModule</title>
<path fill="none" stroke="#000000" d="M557,-122.1061C557,-122.1061 557,-140.991 557,-140.991"/>
<polygon fill="#000000" stroke="#000000" points="553.5001,-140.9909 557,-150.991 560.5001,-140.991 553.5001,-140.9909"/>
</g>
<!-- ReadEmailComponent -->
<g id="node5" class="node">
<title>ReadEmailComponent</title>
<polygon fill="#ffffb3" stroke="#000000" points="447.5379,-122 304.4621,-122 304.4621,-86 447.5379,-86 447.5379,-122"/>
<text text-anchor="middle" x="376" y="-99.8" font-family="Times,serif" font-size="14.00" fill="#000000">ReadEmailComponent</text>
</g>
<!-- ReadEmailComponent&#45;&gt;GmailModule -->
<g id="edge5" class="edge">
<title>ReadEmailComponent&#45;&gt;GmailModule</title>
<path fill="none" stroke="#000000" d="M376,-122.027C376,-138.3976 376,-160 376,-160 376,-160 499.9169,-160 499.9169,-160"/>
<polygon fill="#000000" stroke="#000000" points="499.9169,-163.5001 509.9169,-160 499.9168,-156.5001 499.9169,-163.5001"/>
</g>
<!-- GmailRoutingModule -->
<g id="node7" class="node">
<title>GmailRoutingModule</title>
<polygon fill="#8dd3c7" stroke="#000000" points="279.661,-122 276.661,-126 255.661,-126 252.661,-122 140.339,-122 140.339,-86 279.661,-86 279.661,-122"/>
<text text-anchor="middle" x="210" y="-99.8" font-family="Times,serif" font-size="14.00" fill="#000000">GmailRoutingModule</text>
</g>
<!-- GmailRoutingModule&#45;&gt;GmailModule -->
<g id="edge6" class="edge">
<title>GmailRoutingModule&#45;&gt;GmailModule</title>
<path fill="none" stroke="#000000" d="M210,-122.1061C210,-141.3391 210,-169 210,-169 210,-169 499.8409,-169 499.8409,-169"/>
<polygon fill="#000000" stroke="#000000" points="499.8409,-172.5001 509.8409,-169 499.8409,-165.5001 499.8409,-172.5001"/>
</g>
<!-- SharedModule -->
<g id="node8" class="node">
<title>SharedModule</title>
<polygon fill="#8dd3c7" stroke="#000000" points="122.4231,-122 119.4231,-126 98.4231,-126 95.4231,-122 23.5769,-122 23.5769,-86 122.4231,-86 122.4231,-122"/>
<text text-anchor="middle" x="73" y="-99.8" font-family="Times,serif" font-size="14.00" fill="#000000">SharedModule</text>
</g>
<!-- SharedModule&#45;&gt;GmailModule -->
<g id="edge7" class="edge">
<title>SharedModule&#45;&gt;GmailModule</title>
<path fill="none" stroke="#000000" d="M73,-122.2921C73,-144.2057 73,-178 73,-178 73,-178 499.7108,-178 499.7108,-178"/>
<polygon fill="#000000" stroke="#000000" points="499.7108,-181.5001 509.7108,-178 499.7108,-174.5001 499.7108,-181.5001"/>
</g>
</g>
</svg>
