<?xml version="1.0" encoding="UTF-8" standalone="no"?>
<!DOCTYPE svg PUBLIC "-//W3C//DTD SVG 1.1//EN"
 "http://www.w3.org/Graphics/SVG/1.1/DTD/svg11.dtd">
<!-- Generated by graphviz version 2.40.1 (20161225.0304)
 -->
<!-- Title: dependencies Pages: 1 -->
<svg width="810pt" height="211pt"
 viewBox="0.00 0.00 810.00 211.00" xmlns="http://www.w3.org/2000/svg" xmlns:xlink="http://www.w3.org/1999/xlink">
<g id="graph0" class="graph" transform="scale(1 1) rotate(0) translate(4 207)">
<title>dependencies</title>
<polygon fill="#ffffff" stroke="transparent" points="-4,4 -4,-207 806,-207 806,4 -4,4"/>
<text text-anchor="start" x="380.0091" y="-42.4" font-family="sans-serif" font-weight="bold" font-size="14.00" fill="#000000">Legend</text>
<polygon fill="#ffffb3" stroke="transparent" points="167,-10 167,-30 187,-30 187,-10 167,-10"/>
<text text-anchor="start" x="190.629" y="-15.4" font-family="sans-serif" font-size="14.00" fill="#000000"> &#160;Declarations</text>
<polygon fill="#8dd3c7" stroke="transparent" points="280,-10 280,-30 300,-30 300,-10 280,-10"/>
<text text-anchor="start" x="303.7251" y="-15.4" font-family="sans-serif" font-size="14.00" fill="#000000"> &#160;Module</text>
<polygon fill="#80b1d3" stroke="transparent" points="366,-10 366,-30 386,-30 386,-10 366,-10"/>
<text text-anchor="start" x="389.7812" y="-15.4" font-family="sans-serif" font-size="14.00" fill="#000000"> &#160;Bootstrap</text>
<polygon fill="#fdb462" stroke="transparent" points="463,-10 463,-30 483,-30 483,-10 463,-10"/>
<text text-anchor="start" x="486.6732" y="-15.4" font-family="sans-serif" font-size="14.00" fill="#000000"> &#160;Providers</text>
<polygon fill="#fb8072" stroke="transparent" points="559,-10 559,-30 579,-30 579,-10 559,-10"/>
<text text-anchor="start" x="582.7258" y="-15.4" font-family="sans-serif" font-size="14.00" fill="#000000"> &#160;Exports</text>
<g id="clust1" class="cluster">
<title>cluster_TodoListModule</title>
<polygon fill="none" stroke="#000000" stroke-dasharray="1,5" points="8,-70 8,-195 794,-195 794,-70 8,-70"/>
</g>
<g id="clust2" class="cluster">
<title>cluster_TodoListModule_declarations</title>
<polygon fill="none" stroke="#000000" points="486,-78 486,-130 786,-130 786,-78 486,-78"/>
</g>
<g id="clust5" class="cluster">
<title>cluster_TodoListModule_imports</title>
<polygon fill="none" stroke="#000000" points="190,-78 190,-130 478,-130 478,-78 190,-78"/>
</g>
<g id="clust8" class="cluster">
<title>cluster_TodoListModule_providers</title>
<polygon fill="none" stroke="#000000" points="16,-78 16,-130 182,-130 182,-78 16,-78"/>
</g>
<!-- TodoEditComponent -->
<g id="node1" class="node">
<title>TodoEditComponent</title>
<polygon fill="#ffffb3" stroke="#000000" points="778.219,-122 643.781,-122 643.781,-86 778.219,-86 778.219,-122"/>
<text text-anchor="middle" x="711" y="-99.8" font-family="Times,serif" font-size="14.00" fill="#000000">TodoEditComponent</text>
</g>
<!-- TodoListModule -->
<g id="node3" class="node">
<title>TodoListModule</title>
<polygon fill="#8dd3c7" stroke="#000000" points="476.3809,-187 473.3809,-191 452.3809,-191 449.3809,-187 365.6191,-187 365.6191,-151 476.3809,-151 476.3809,-187"/>
<text text-anchor="middle" x="421" y="-164.8" font-family="Times,serif" font-size="14.00" fill="#000000">TodoListModule</text>
</g>
<!-- TodoEditComponent&#45;&gt;TodoListModule -->
<g id="edge1" class="edge">
<title>TodoEditComponent&#45;&gt;TodoListModule</title>
<path fill="none" stroke="#000000" d="M711,-122.2843C711,-143.3211 711,-175 711,-175 711,-175 486.5718,-175 486.5718,-175"/>
<polygon fill="#000000" stroke="#000000" points="486.5718,-171.5001 476.5718,-175 486.5718,-178.5001 486.5718,-171.5001"/>
</g>
<!-- TodoListComponent -->
<g id="node2" class="node">
<title>TodoListComponent</title>
<polygon fill="#ffffb3" stroke="#000000" points="626.1638,-122 493.8362,-122 493.8362,-86 626.1638,-86 626.1638,-122"/>
<text text-anchor="middle" x="560" y="-99.8" font-family="Times,serif" font-size="14.00" fill="#000000">TodoListComponent</text>
</g>
<!-- TodoListComponent&#45;&gt;TodoListModule -->
<g id="edge2" class="edge">
<title>TodoListComponent&#45;&gt;TodoListModule</title>
<path fill="none" stroke="#000000" d="M560,-122.0225C560,-139.3734 560,-163 560,-163 560,-163 486.7357,-163 486.7357,-163"/>
<polygon fill="#000000" stroke="#000000" points="486.7357,-159.5001 476.7357,-163 486.7357,-166.5001 486.7357,-159.5001"/>
</g>
<!-- SharedModule -->
<g id="node4" class="node">
<title>SharedModule</title>
<polygon fill="#8dd3c7" stroke="#000000" points="470.4231,-122 467.4231,-126 446.4231,-126 443.4231,-122 371.5769,-122 371.5769,-86 470.4231,-86 470.4231,-122"/>
<text text-anchor="middle" x="421" y="-99.8" font-family="Times,serif" font-size="14.00" fill="#000000">SharedModule</text>
</g>
<!-- SharedModule&#45;&gt;TodoListModule -->
<g id="edge3" class="edge">
<title>SharedModule&#45;&gt;TodoListModule</title>
<path fill="none" stroke="#000000" d="M421,-122.1061C421,-122.1061 421,-140.991 421,-140.991"/>
<polygon fill="#000000" stroke="#000000" points="417.5001,-140.9909 421,-150.991 424.5001,-140.991 417.5001,-140.9909"/>
</g>
<!-- TodoListRoutingModule -->
<g id="node5" class="node">
<title>TodoListRoutingModule</title>
<polygon fill="#8dd3c7" stroke="#000000" points="353.9986,-122 350.9986,-126 329.9986,-126 326.9986,-122 198.0014,-122 198.0014,-86 353.9986,-86 353.9986,-122"/>
<text text-anchor="middle" x="276" y="-99.8" font-family="Times,serif" font-size="14.00" fill="#000000">TodoListRoutingModule</text>
</g>
<!-- TodoListRoutingModule&#45;&gt;TodoListModule -->
<g id="edge4" class="edge">
<title>TodoListRoutingModule&#45;&gt;TodoListModule</title>
<path fill="none" stroke="#000000" d="M276,-122.0225C276,-139.3734 276,-163 276,-163 276,-163 355.3539,-163 355.3539,-163"/>
<polygon fill="#000000" stroke="#000000" points="355.3539,-166.5001 365.3539,-163 355.3539,-159.5001 355.3539,-166.5001"/>
</g>
<!-- TodoListService -->
<g id="node6" class="node">
<title>TodoListService</title>
<ellipse fill="#fdb462" stroke="#000000" cx="99" cy="-104" rx="75.2983" ry="18"/>
<text text-anchor="middle" x="99" y="-99.8" font-family="Times,serif" font-size="14.00" fill="#000000">TodoListService</text>
</g>
<!-- TodoListService&#45;&gt;TodoListModule -->
<g id="edge5" class="edge">
<title>TodoListService&#45;&gt;TodoListModule</title>
<path fill="none" stroke="#000000" d="M99,-122.2843C99,-143.3211 99,-175 99,-175 99,-175 355.2795,-175 355.2795,-175"/>
<polygon fill="#000000" stroke="#000000" points="355.2795,-178.5001 365.2795,-175 355.2795,-171.5001 355.2795,-178.5001"/>
</g>
</g>
</svg>
