<?xml version="1.0" encoding="UTF-8" standalone="no"?>
<!DOCTYPE svg PUBLIC "-//W3C//DTD SVG 1.1//EN"
 "http://www.w3.org/Graphics/SVG/1.1/DTD/svg11.dtd">
<!-- Generated by graphviz version 2.40.1 (20161225.0304)
 -->
<!-- Title: dependencies Pages: 1 -->
<svg width="1089pt" height="284pt"
 viewBox="0.00 0.00 1089.00 284.00" xmlns="http://www.w3.org/2000/svg" xmlns:xlink="http://www.w3.org/1999/xlink">
<g id="graph0" class="graph" transform="scale(1 1) rotate(0) translate(4 280)">
<title>dependencies</title>
<polygon fill="#ffffff" stroke="transparent" points="-4,4 -4,-280 1085,-280 1085,4 -4,4"/>
<text text-anchor="start" x="519.5091" y="-42.4" font-family="sans-serif" font-weight="bold" font-size="14.00" fill="#000000">Legend</text>
<polygon fill="#ffffb3" stroke="transparent" points="306.5,-10 306.5,-30 326.5,-30 326.5,-10 306.5,-10"/>
<text text-anchor="start" x="330.129" y="-15.4" font-family="sans-serif" font-size="14.00" fill="#000000"> &#160;Declarations</text>
<polygon fill="#8dd3c7" stroke="transparent" points="419.5,-10 419.5,-30 439.5,-30 439.5,-10 419.5,-10"/>
<text text-anchor="start" x="443.2251" y="-15.4" font-family="sans-serif" font-size="14.00" fill="#000000"> &#160;Module</text>
<polygon fill="#80b1d3" stroke="transparent" points="505.5,-10 505.5,-30 525.5,-30 525.5,-10 505.5,-10"/>
<text text-anchor="start" x="529.2812" y="-15.4" font-family="sans-serif" font-size="14.00" fill="#000000"> &#160;Bootstrap</text>
<polygon fill="#fdb462" stroke="transparent" points="602.5,-10 602.5,-30 622.5,-30 622.5,-10 602.5,-10"/>
<text text-anchor="start" x="626.1732" y="-15.4" font-family="sans-serif" font-size="14.00" fill="#000000"> &#160;Providers</text>
<polygon fill="#fb8072" stroke="transparent" points="698.5,-10 698.5,-30 718.5,-30 718.5,-10 698.5,-10"/>
<text text-anchor="start" x="722.2258" y="-15.4" font-family="sans-serif" font-size="14.00" fill="#000000"> &#160;Exports</text>
<g id="clust1" class="cluster">
<title>cluster_AppModule</title>
<polygon fill="none" stroke="#000000" stroke-dasharray="1,5" points="8,-70 8,-268 1073,-268 1073,-70 8,-70"/>
</g>
<g id="clust2" class="cluster">
<title>cluster_AppModule_declarations</title>
<polygon fill="none" stroke="#000000" points="645,-78 645,-130 1065,-130 1065,-78 645,-78"/>
</g>
<g id="clust6" class="cluster">
<title>cluster_AppModule_imports</title>
<polygon fill="none" stroke="#000000" points="16,-78 16,-130 637,-130 637,-78 16,-78"/>
</g>
<g id="clust8" class="cluster">
<title>cluster_AppModule_bootstrap</title>
<polygon fill="none" stroke="#000000" points="438,-208 438,-260 562,-260 562,-208 438,-208"/>
</g>
<!-- AppComponent -->
<g id="node1" class="node">
<title>AppComponent</title>
<polygon fill="#ffffb3" stroke="#000000" points="1056.9399,-122 951.0601,-122 951.0601,-86 1056.9399,-86 1056.9399,-122"/>
<text text-anchor="middle" x="1004" y="-99.8" font-family="Times,serif" font-size="14.00" fill="#000000">AppComponent</text>
</g>
<!-- AppModule -->
<g id="node4" class="node">
<title>AppModule</title>
<polygon fill="#8dd3c7" stroke="#000000" points="541.6571,-187 538.6571,-191 517.6571,-191 514.6571,-187 458.3429,-187 458.3429,-151 541.6571,-151 541.6571,-187"/>
<text text-anchor="middle" x="500" y="-164.8" font-family="Times,serif" font-size="14.00" fill="#000000">AppModule</text>
</g>
<!-- AppComponent&#45;&gt;AppModule -->
<g id="edge1" class="edge">
<title>AppComponent&#45;&gt;AppModule</title>
<path fill="none" stroke="#000000" d="M1004,-122.2921C1004,-144.2057 1004,-178 1004,-178 1004,-178 551.6732,-178 551.6732,-178"/>
<polygon fill="#000000" stroke="#000000" points="551.6733,-174.5001 541.6732,-178 551.6732,-181.5001 551.6733,-174.5001"/>
</g>
<!-- GithubComponent -->
<g id="node2" class="node">
<title>GithubComponent</title>
<polygon fill="#ffffb3" stroke="#000000" points="933.2204,-122 812.7796,-122 812.7796,-86 933.2204,-86 933.2204,-122"/>
<text text-anchor="middle" x="873" y="-99.8" font-family="Times,serif" font-size="14.00" fill="#000000">GithubComponent</text>
</g>
<!-- GithubComponent&#45;&gt;AppModule -->
<g id="edge2" class="edge">
<title>GithubComponent&#45;&gt;AppModule</title>
<path fill="none" stroke="#000000" d="M873,-122.1061C873,-141.3391 873,-169 873,-169 873,-169 551.7021,-169 551.7021,-169"/>
<polygon fill="#000000" stroke="#000000" points="551.7021,-165.5001 541.7021,-169 551.7021,-172.5001 551.7021,-165.5001"/>
</g>
<!-- HomePageComponent -->
<g id="node3" class="node">
<title>HomePageComponent</title>
<polygon fill="#ffffb3" stroke="#000000" points="795.2562,-122 652.7438,-122 652.7438,-86 795.2562,-86 795.2562,-122"/>
<text text-anchor="middle" x="724" y="-99.8" font-family="Times,serif" font-size="14.00" fill="#000000">HomePageComponent</text>
</g>
<!-- HomePageComponent&#45;&gt;AppModule -->
<g id="edge3" class="edge">
<title>HomePageComponent&#45;&gt;AppModule</title>
<path fill="none" stroke="#000000" d="M724,-122.027C724,-138.3976 724,-160 724,-160 724,-160 551.8699,-160 551.8699,-160"/>
<polygon fill="#000000" stroke="#000000" points="551.87,-156.5001 541.8699,-160 551.8699,-163.5001 551.87,-156.5001"/>
</g>
<!-- AppComponent  -->
<g id="node10" class="node">
<title>AppComponent </title>
<polygon fill="#80b1d3" stroke="#000000" points="554.439,-252 445.561,-252 445.561,-216 554.439,-216 554.439,-252"/>
<text text-anchor="middle" x="500" y="-229.8" font-family="Times,serif" font-size="14.00" fill="#000000">AppComponent </text>
</g>
<!-- AppModule&#45;&gt;AppComponent  -->
<g id="edge9" class="edge">
<title>AppModule&#45;&gt;AppComponent </title>
<path fill="none" stroke="#000000" stroke-dasharray="1,5" d="M500,-187.1061C500,-187.1061 500,-205.991 500,-205.991"/>
<polygon fill="#000000" stroke="#000000" points="496.5001,-205.9909 500,-215.991 503.5001,-205.991 496.5001,-205.9909"/>
</g>
<!-- AppRoutingModule -->
<g id="node5" class="node">
<title>AppRoutingModule</title>
<polygon fill="#8dd3c7" stroke="#000000" points="629.2744,-122 626.2744,-126 605.2744,-126 602.2744,-122 500.7256,-122 500.7256,-86 629.2744,-86 629.2744,-122"/>
<text text-anchor="middle" x="565" y="-99.8" font-family="Times,serif" font-size="14.00" fill="#000000">AppRoutingModule</text>
</g>
<!-- AppRoutingModule&#45;&gt;AppModule -->
<g id="edge4" class="edge">
<title>AppRoutingModule&#45;&gt;AppModule</title>
<path fill="none" stroke="#000000" d="M521.2206,-122.1061C521.2206,-122.1061 521.2206,-140.991 521.2206,-140.991"/>
<polygon fill="#000000" stroke="#000000" points="517.7206,-140.9909 521.2206,-150.991 524.7206,-140.991 517.7206,-140.9909"/>
</g>
<!-- GmailModule -->
<g id="node6" class="node">
<title>GmailModule</title>
<polygon fill="#8dd3c7" stroke="#000000" points="482.0439,-122 479.0439,-126 458.0439,-126 455.0439,-122 387.9561,-122 387.9561,-86 482.0439,-86 482.0439,-122"/>
<text text-anchor="middle" x="435" y="-99.8" font-family="Times,serif" font-size="14.00" fill="#000000">GmailModule</text>
</g>
<!-- GmailModule&#45;&gt;AppModule -->
<g id="edge5" class="edge">
<title>GmailModule&#45;&gt;AppModule</title>
<path fill="none" stroke="#000000" d="M470.2216,-122.1061C470.2216,-122.1061 470.2216,-140.991 470.2216,-140.991"/>
<polygon fill="#000000" stroke="#000000" points="466.7217,-140.9909 470.2216,-150.991 473.7217,-140.991 466.7217,-140.9909"/>
</g>
<!-- SharedModule -->
<g id="node7" class="node">
<title>SharedModule</title>
<polygon fill="#8dd3c7" stroke="#000000" points="370.4231,-122 367.4231,-126 346.4231,-126 343.4231,-122 271.5769,-122 271.5769,-86 370.4231,-86 370.4231,-122"/>
<text text-anchor="middle" x="321" y="-99.8" font-family="Times,serif" font-size="14.00" fill="#000000">SharedModule</text>
</g>
<!-- SharedModule&#45;&gt;AppModule -->
<g id="edge6" class="edge">
<title>SharedModule&#45;&gt;AppModule</title>
<path fill="none" stroke="#000000" d="M321,-122.027C321,-138.3976 321,-160 321,-160 321,-160 448.0325,-160 448.0325,-160"/>
<polygon fill="#000000" stroke="#000000" points="448.0325,-163.5001 458.0325,-160 448.0324,-156.5001 448.0325,-163.5001"/>
</g>
<!-- SpotifyModule -->
<g id="node8" class="node">
<title>SpotifyModule</title>
<polygon fill="#8dd3c7" stroke="#000000" points="253.2745,-122 250.2745,-126 229.2745,-126 226.2745,-122 152.7255,-122 152.7255,-86 253.2745,-86 253.2745,-122"/>
<text text-anchor="middle" x="203" y="-99.8" font-family="Times,serif" font-size="14.00" fill="#000000">SpotifyModule</text>
</g>
<!-- SpotifyModule&#45;&gt;AppModule -->
<g id="edge7" class="edge">
<title>SpotifyModule&#45;&gt;AppModule</title>
<path fill="none" stroke="#000000" d="M203,-122.1061C203,-141.3391 203,-169 203,-169 203,-169 448.0771,-169 448.0771,-169"/>
<polygon fill="#000000" stroke="#000000" points="448.0771,-172.5001 458.0771,-169 448.077,-165.5001 448.0771,-172.5001"/>
</g>
<!-- TodoListModule -->
<g id="node9" class="node">
<title>TodoListModule</title>
<polygon fill="#8dd3c7" stroke="#000000" points="134.3809,-122 131.3809,-126 110.3809,-126 107.3809,-122 23.6191,-122 23.6191,-86 134.3809,-86 134.3809,-122"/>
<text text-anchor="middle" x="79" y="-99.8" font-family="Times,serif" font-size="14.00" fill="#000000">TodoListModule</text>
</g>
<!-- TodoListModule&#45;&gt;AppModule -->
<g id="edge8" class="edge">
<title>TodoListModule&#45;&gt;AppModule</title>
<path fill="none" stroke="#000000" d="M79,-122.2921C79,-144.2057 79,-178 79,-178 79,-178 448.0938,-178 448.0938,-178"/>
<polygon fill="#000000" stroke="#000000" points="448.0938,-181.5001 458.0938,-178 448.0937,-174.5001 448.0938,-181.5001"/>
</g>
</g>
</svg>
