<?xml version="1.0" encoding="UTF-8" standalone="no"?>
<!DOCTYPE svg PUBLIC "-//W3C//DTD SVG 1.1//EN"
 "http://www.w3.org/Graphics/SVG/1.1/DTD/svg11.dtd">
<!-- Generated by graphviz version 2.40.1 (20161225.0304)
 -->
<!-- Title: dependencies Pages: 1 -->
<svg width="2163pt" height="284pt"
 viewBox="0.00 0.00 2163.00 284.00" xmlns="http://www.w3.org/2000/svg" xmlns:xlink="http://www.w3.org/1999/xlink">
<g id="graph0" class="graph" transform="scale(1 1) rotate(0) translate(4 280)">
<title>dependencies</title>
<polygon fill="#ffffff" stroke="transparent" points="-4,4 -4,-280 2159,-280 2159,4 -4,4"/>
<text text-anchor="start" x="1056.5091" y="-42.4" font-family="sans-serif" font-weight="bold" font-size="14.00" fill="#000000">Legend</text>
<polygon fill="#ffffb3" stroke="transparent" points="843.5,-10 843.5,-30 863.5,-30 863.5,-10 843.5,-10"/>
<text text-anchor="start" x="867.129" y="-15.4" font-family="sans-serif" font-size="14.00" fill="#000000"> &#160;Declarations</text>
<polygon fill="#8dd3c7" stroke="transparent" points="956.5,-10 956.5,-30 976.5,-30 976.5,-10 956.5,-10"/>
<text text-anchor="start" x="980.2251" y="-15.4" font-family="sans-serif" font-size="14.00" fill="#000000"> &#160;Module</text>
<polygon fill="#80b1d3" stroke="transparent" points="1042.5,-10 1042.5,-30 1062.5,-30 1062.5,-10 1042.5,-10"/>
<text text-anchor="start" x="1066.2812" y="-15.4" font-family="sans-serif" font-size="14.00" fill="#000000"> &#160;Bootstrap</text>
<polygon fill="#fdb462" stroke="transparent" points="1139.5,-10 1139.5,-30 1159.5,-30 1159.5,-10 1139.5,-10"/>
<text text-anchor="start" x="1163.1732" y="-15.4" font-family="sans-serif" font-size="14.00" fill="#000000"> &#160;Providers</text>
<polygon fill="#fb8072" stroke="transparent" points="1235.5,-10 1235.5,-30 1255.5,-30 1255.5,-10 1235.5,-10"/>
<text text-anchor="start" x="1259.2258" y="-15.4" font-family="sans-serif" font-size="14.00" fill="#000000"> &#160;Exports</text>
<g id="clust1" class="cluster">
<title>cluster_AppModule</title>
<polygon fill="none" stroke="#000000" stroke-dasharray="1,5" points="8,-70 8,-268 2147,-268 2147,-70 8,-70"/>
</g>
<g id="clust2" class="cluster">
<title>cluster_AppModule_declarations</title>
<polygon fill="none" stroke="#000000" points="356,-78 356,-130 2139,-130 2139,-78 356,-78"/>
</g>
<g id="clust14" class="cluster">
<title>cluster_AppModule_imports</title>
<polygon fill="none" stroke="#000000" points="204,-78 204,-130 348,-130 348,-78 204,-78"/>
</g>
<g id="clust16" class="cluster">
<title>cluster_AppModule_bootstrap</title>
<polygon fill="none" stroke="#000000" points="1080,-208 1080,-260 1204,-260 1204,-208 1080,-208"/>
</g>
<g id="clust17" class="cluster">
<title>cluster_AppModule_providers</title>
<polygon fill="none" stroke="#000000" points="16,-78 16,-130 196,-130 196,-78 16,-78"/>
</g>
<!-- AppComponent -->
<g id="node1" class="node">
<title>AppComponent</title>
<polygon fill="#ffffb3" stroke="#000000" points="2130.9399,-122 2025.0601,-122 2025.0601,-86 2130.9399,-86 2130.9399,-122"/>
<text text-anchor="middle" x="2078" y="-99.8" font-family="Times,serif" font-size="14.00" fill="#000000">AppComponent</text>
</g>
<!-- AppModule -->
<g id="node12" class="node">
<title>AppModule</title>
<polygon fill="#8dd3c7" stroke="#000000" points="1183.6571,-187 1180.6571,-191 1159.6571,-191 1156.6571,-187 1100.3429,-187 1100.3429,-151 1183.6571,-151 1183.6571,-187"/>
<text text-anchor="middle" x="1142" y="-164.8" font-family="Times,serif" font-size="14.00" fill="#000000">AppModule</text>
</g>
<!-- AppComponent&#45;&gt;AppModule -->
<g id="edge1" class="edge">
<title>AppComponent&#45;&gt;AppModule</title>
<path fill="none" stroke="#000000" d="M2078,-122.0908C2078,-145.1328 2078,-182 2078,-182 2078,-182 1193.7309,-182 1193.7309,-182"/>
<polygon fill="#000000" stroke="#000000" points="1193.7309,-178.5001 1183.7309,-182 1193.7309,-185.5001 1193.7309,-178.5001"/>
</g>
<!-- GithubComponent -->
<g id="node2" class="node">
<title>GithubComponent</title>
<polygon fill="#ffffb3" stroke="#000000" points="2007.2204,-122 1886.7796,-122 1886.7796,-86 2007.2204,-86 2007.2204,-122"/>
<text text-anchor="middle" x="1947" y="-99.8" font-family="Times,serif" font-size="14.00" fill="#000000">GithubComponent</text>
</g>
<!-- GithubComponent&#45;&gt;AppModule -->
<g id="edge2" class="edge">
<title>GithubComponent&#45;&gt;AppModule</title>
<path fill="none" stroke="#000000" d="M1947,-122.0449C1947,-143.6623 1947,-177 1947,-177 1947,-177 1193.8656,-177 1193.8656,-177"/>
<polygon fill="#000000" stroke="#000000" points="1193.8656,-173.5001 1183.8656,-177 1193.8656,-180.5001 1193.8656,-173.5001"/>
</g>
<!-- GmailComponent -->
<g id="node3" class="node">
<title>GmailComponent</title>
<polygon fill="#ffffb3" stroke="#000000" points="1869.3259,-122 1752.6741,-122 1752.6741,-86 1869.3259,-86 1869.3259,-122"/>
<text text-anchor="middle" x="1811" y="-99.8" font-family="Times,serif" font-size="14.00" fill="#000000">GmailComponent</text>
</g>
<!-- GmailComponent&#45;&gt;AppModule -->
<g id="edge3" class="edge">
<title>GmailComponent&#45;&gt;AppModule</title>
<path fill="none" stroke="#000000" d="M1811,-122.2228C1811,-142.3652 1811,-172 1811,-172 1811,-172 1193.8489,-172 1193.8489,-172"/>
<polygon fill="#000000" stroke="#000000" points="1193.849,-168.5001 1183.8489,-172 1193.8489,-175.5001 1193.849,-168.5001"/>
</g>
<!-- HomePageComponent -->
<g id="node4" class="node">
<title>HomePageComponent</title>
<polygon fill="#ffffb3" stroke="#000000" points="1734.2562,-122 1591.7438,-122 1591.7438,-86 1734.2562,-86 1734.2562,-122"/>
<text text-anchor="middle" x="1663" y="-99.8" font-family="Times,serif" font-size="14.00" fill="#000000">HomePageComponent</text>
</g>
<!-- HomePageComponent&#45;&gt;AppModule -->
<g id="edge4" class="edge">
<title>HomePageComponent&#45;&gt;AppModule</title>
<path fill="none" stroke="#000000" d="M1663,-122.2222C1663,-140.8285 1663,-167 1663,-167 1663,-167 1193.7549,-167 1193.7549,-167"/>
<polygon fill="#000000" stroke="#000000" points="1193.755,-163.5001 1183.7549,-167 1193.7549,-170.5001 1193.755,-163.5001"/>
</g>
<!-- SpotifyHomeComponent -->
<g id="node5" class="node">
<title>SpotifyHomeComponent</title>
<polygon fill="#ffffb3" stroke="#000000" points="1573.2688,-122 1416.7312,-122 1416.7312,-86 1573.2688,-86 1573.2688,-122"/>
<text text-anchor="middle" x="1495" y="-99.8" font-family="Times,serif" font-size="14.00" fill="#000000">SpotifyHomeComponent</text>
</g>
<!-- SpotifyHomeComponent&#45;&gt;AppModule -->
<g id="edge5" class="edge">
<title>SpotifyHomeComponent&#45;&gt;AppModule</title>
<path fill="none" stroke="#000000" d="M1495,-122.0336C1495,-139.0597 1495,-162 1495,-162 1495,-162 1193.8799,-162 1193.8799,-162"/>
<polygon fill="#000000" stroke="#000000" points="1193.88,-158.5001 1183.8799,-162 1193.8799,-165.5001 1193.88,-158.5001"/>
</g>
<!-- SpotifyPlayerComponent -->
<g id="node6" class="node">
<title>SpotifyPlayerComponent</title>
<polygon fill="#ffffb3" stroke="#000000" points="1398.3201,-122 1239.6799,-122 1239.6799,-86 1398.3201,-86 1398.3201,-122"/>
<text text-anchor="middle" x="1319" y="-99.8" font-family="Times,serif" font-size="14.00" fill="#000000">SpotifyPlayerComponent</text>
</g>
<!-- SpotifyPlayerComponent&#45;&gt;AppModule -->
<g id="edge6" class="edge">
<title>SpotifyPlayerComponent&#45;&gt;AppModule</title>
<path fill="none" stroke="#000000" d="M1319,-122.2396C1319,-137.5706 1319,-157 1319,-157 1319,-157 1193.9465,-157 1193.9465,-157"/>
<polygon fill="#000000" stroke="#000000" points="1193.9466,-153.5001 1183.9465,-157 1193.9465,-160.5001 1193.9466,-153.5001"/>
</g>
<!-- SpotifySearchComponent -->
<g id="node7" class="node">
<title>SpotifySearchComponent</title>
<polygon fill="#ffffb3" stroke="#000000" points="1222.1442,-122 1061.8558,-122 1061.8558,-86 1222.1442,-86 1222.1442,-122"/>
<text text-anchor="middle" x="1142" y="-99.8" font-family="Times,serif" font-size="14.00" fill="#000000">SpotifySearchComponent</text>
</g>
<!-- SpotifySearchComponent&#45;&gt;AppModule -->
<g id="edge7" class="edge">
<title>SpotifySearchComponent&#45;&gt;AppModule</title>
<path fill="none" stroke="#000000" d="M1142,-122.1061C1142,-122.1061 1142,-140.991 1142,-140.991"/>
<polygon fill="#000000" stroke="#000000" points="1138.5001,-140.9909 1142,-150.991 1145.5001,-140.991 1138.5001,-140.9909"/>
</g>
<!-- SpotifyStoreTokenComponent -->
<g id="node8" class="node">
<title>SpotifyStoreTokenComponent</title>
<polygon fill="#ffffb3" stroke="#000000" points="1043.8724,-122 856.1276,-122 856.1276,-86 1043.8724,-86 1043.8724,-122"/>
<text text-anchor="middle" x="950" y="-99.8" font-family="Times,serif" font-size="14.00" fill="#000000">SpotifyStoreTokenComponent</text>
</g>
<!-- SpotifyStoreTokenComponent&#45;&gt;AppModule -->
<g id="edge8" class="edge">
<title>SpotifyStoreTokenComponent&#45;&gt;AppModule</title>
<path fill="none" stroke="#000000" d="M950,-122.2396C950,-137.5706 950,-157 950,-157 950,-157 1090.3389,-157 1090.3389,-157"/>
<polygon fill="#000000" stroke="#000000" points="1090.3389,-160.5001 1100.3389,-157 1090.3388,-153.5001 1090.3389,-160.5001"/>
</g>
<!-- SpotifyUserInfoComponent -->
<g id="node9" class="node">
<title>SpotifyUserInfoComponent</title>
<polygon fill="#ffffb3" stroke="#000000" points="838.3047,-122 665.6953,-122 665.6953,-86 838.3047,-86 838.3047,-122"/>
<text text-anchor="middle" x="752" y="-99.8" font-family="Times,serif" font-size="14.00" fill="#000000">SpotifyUserInfoComponent</text>
</g>
<!-- SpotifyUserInfoComponent&#45;&gt;AppModule -->
<g id="edge9" class="edge">
<title>SpotifyUserInfoComponent&#45;&gt;AppModule</title>
<path fill="none" stroke="#000000" d="M752,-122.0336C752,-139.0597 752,-162 752,-162 752,-162 1090.2632,-162 1090.2632,-162"/>
<polygon fill="#000000" stroke="#000000" points="1090.2632,-165.5001 1100.2632,-162 1090.2631,-158.5001 1090.2632,-165.5001"/>
</g>
<!-- TodoEditComponent -->
<g id="node10" class="node">
<title>TodoEditComponent</title>
<polygon fill="#ffffb3" stroke="#000000" points="648.219,-122 513.781,-122 513.781,-86 648.219,-86 648.219,-122"/>
<text text-anchor="middle" x="581" y="-99.8" font-family="Times,serif" font-size="14.00" fill="#000000">TodoEditComponent</text>
</g>
<!-- TodoEditComponent&#45;&gt;AppModule -->
<g id="edge10" class="edge">
<title>TodoEditComponent&#45;&gt;AppModule</title>
<path fill="none" stroke="#000000" d="M581,-122.2222C581,-140.8285 581,-167 581,-167 581,-167 1090.2921,-167 1090.2921,-167"/>
<polygon fill="#000000" stroke="#000000" points="1090.2922,-170.5001 1100.2921,-167 1090.2921,-163.5001 1090.2922,-170.5001"/>
</g>
<!-- TodoListComponent -->
<g id="node11" class="node">
<title>TodoListComponent</title>
<polygon fill="#ffffb3" stroke="#000000" points="496.1638,-122 363.8362,-122 363.8362,-86 496.1638,-86 496.1638,-122"/>
<text text-anchor="middle" x="430" y="-99.8" font-family="Times,serif" font-size="14.00" fill="#000000">TodoListComponent</text>
</g>
<!-- TodoListComponent&#45;&gt;AppModule -->
<g id="edge11" class="edge">
<title>TodoListComponent&#45;&gt;AppModule</title>
<path fill="none" stroke="#000000" d="M430,-122.2228C430,-142.3652 430,-172 430,-172 430,-172 1090.1193,-172 1090.1193,-172"/>
<polygon fill="#000000" stroke="#000000" points="1090.1193,-175.5001 1100.1193,-172 1090.1193,-168.5001 1090.1193,-175.5001"/>
</g>
<!-- AppComponent  -->
<g id="node14" class="node">
<title>AppComponent </title>
<polygon fill="#80b1d3" stroke="#000000" points="1196.439,-252 1087.561,-252 1087.561,-216 1196.439,-216 1196.439,-252"/>
<text text-anchor="middle" x="1142" y="-229.8" font-family="Times,serif" font-size="14.00" fill="#000000">AppComponent </text>
</g>
<!-- AppModule&#45;&gt;AppComponent  -->
<g id="edge13" class="edge">
<title>AppModule&#45;&gt;AppComponent </title>
<path fill="none" stroke="#000000" stroke-dasharray="1,5" d="M1142,-187.1061C1142,-187.1061 1142,-205.991 1142,-205.991"/>
<polygon fill="#000000" stroke="#000000" points="1138.5001,-205.9909 1142,-215.991 1145.5001,-205.991 1138.5001,-205.9909"/>
</g>
<!-- AppRoutingModule -->
<g id="node13" class="node">
<title>AppRoutingModule</title>
<polygon fill="#8dd3c7" stroke="#000000" points="340.2744,-122 337.2744,-126 316.2744,-126 313.2744,-122 211.7256,-122 211.7256,-86 340.2744,-86 340.2744,-122"/>
<text text-anchor="middle" x="276" y="-99.8" font-family="Times,serif" font-size="14.00" fill="#000000">AppRoutingModule</text>
</g>
<!-- AppRoutingModule&#45;&gt;AppModule -->
<g id="edge12" class="edge">
<title>AppRoutingModule&#45;&gt;AppModule</title>
<path fill="none" stroke="#000000" d="M276,-122.0449C276,-143.6623 276,-177 276,-177 276,-177 1090.231,-177 1090.231,-177"/>
<polygon fill="#000000" stroke="#000000" points="1090.2311,-180.5001 1100.231,-177 1090.231,-173.5001 1090.2311,-180.5001"/>
</g>
<!-- SpotifyInterceptor -->
<g id="node15" class="node">
<title>SpotifyInterceptor</title>
<ellipse fill="#fdb462" stroke="#000000" cx="106" cy="-104" rx="81.6596" ry="18"/>
<text text-anchor="middle" x="106" y="-99.8" font-family="Times,serif" font-size="14.00" fill="#000000">SpotifyInterceptor</text>
</g>
<!-- SpotifyInterceptor&#45;&gt;AppModule -->
<g id="edge14" class="edge">
<title>SpotifyInterceptor&#45;&gt;AppModule</title>
<path fill="none" stroke="#000000" d="M106,-122.0908C106,-145.1328 106,-182 106,-182 106,-182 1090.1044,-182 1090.1044,-182"/>
<polygon fill="#000000" stroke="#000000" points="1090.1045,-185.5001 1100.1044,-182 1090.1044,-178.5001 1090.1045,-185.5001"/>
</g>
</g>
</svg>
